<svg width="20" height="21" viewBox="0 0 20 21" fill="none" xmlns="http://www.w3.org/2000/svg">
<g filter="url(#filter0_d_6_522)">
<path d="M12.3333 4.66675C13.2616 4.66675 14.1518 5.0355 14.8082 5.69187C15.4646 6.34825 15.8333 7.23849 15.8333 8.16675V12.2501H13.5V8.16675C13.5 7.85733 13.3771 7.56058 13.1583 7.34179C12.9395 7.123 12.6428 7.00008 12.3333 7.00008C12.0239 7.00008 11.7272 7.123 11.5084 7.34179C11.2896 7.56058 11.1667 7.85733 11.1667 8.16675V12.2501H8.83334V8.16675C8.83334 7.23849 9.20209 6.34825 9.85847 5.69187C10.5148 5.0355 11.4051 4.66675 12.3333 4.66675Z" fill="#101010"/>
<path d="M4.16667 5.25H6.50001V12.25H4.16667V5.25Z" fill="#101010"/>
<path d="M5.33334 3.50008C5.97767 3.50008 6.50001 2.97775 6.50001 2.33341C6.50001 1.68908 5.97767 1.16675 5.33334 1.16675C4.68901 1.16675 4.16667 1.68908 4.16667 2.33341C4.16667 2.97775 4.68901 3.50008 5.33334 3.50008Z" fill="#101010"/>
</g>
<defs>
<filter id="filter0_d_6_522" x="-1" y="0" width="22" height="22" filterUnits="userSpaceOnUse" color-interpolation-filters="sRGB">
<feFlood flood-opacity="0" result="BackgroundImageFix"/>
<feColorMatrix in="SourceAlpha" type="matrix" values="0 0 0 0 0 0 0 0 0 0 0 0 0 0 0 0 0 0 127 0" result="hardAlpha"/>
<feOffset dy="4"/>
<feGaussianBlur stdDeviation="2"/>
<feComposite in2="hardAlpha" operator="out"/>
<feColorMatrix type="matrix" values="0 0 0 0 0 0 0 0 0 0 0 0 0 0 0 0 0 0 0.25 0"/>
<feBlend mode="normal" in2="BackgroundImageFix" result="effect1_dropShadow_6_522"/>
<feBlend mode="normal" in="SourceGraphic" in2="effect1_dropShadow_6_522" result="shape"/>
</filter>
</defs>
</svg>
