<svg width="36" height="38" viewBox="0 0 36 38" fill="none" xmlns="http://www.w3.org/2000/svg">
<g filter="url(#filter0_d_6_351)">
<path d="M18 2C10.2663 2 4 8.26625 4 16C4 23.7337 10.2663 30 18 30C25.7337 30 32 23.7337 32 16C32 8.26625 25.7337 2 18 2ZM12.6875 22.1181C12.6016 22.2647 12.4786 22.386 12.3309 22.4699C12.1833 22.5538 12.0161 22.5974 11.8462 22.5963C11.6731 22.5978 11.503 22.551 11.355 22.4613C11.2448 22.3974 11.1483 22.3124 11.071 22.2111C10.9937 22.1098 10.9372 21.9943 10.9047 21.8711C10.8721 21.748 10.8643 21.6196 10.8815 21.4934C10.8987 21.3672 10.9407 21.2456 11.005 21.1356L11.9606 19.5469C12.0089 19.4649 12.0778 19.3969 12.1605 19.3498C12.2431 19.3026 12.3367 19.2779 12.4319 19.2781H12.5731C13.2662 19.2781 13.7513 19.695 13.8925 20.0987L12.6875 22.1181ZM20.7781 18.9931L14.52 19H10.3606C10.2298 19.0006 10.1001 18.9745 9.97965 18.9235C9.85915 18.8724 9.75027 18.7974 9.65963 18.7031C9.56898 18.6087 9.49845 18.4968 9.45232 18.3744C9.40618 18.2519 9.38541 18.1214 9.39125 17.9906C9.41125 17.4656 9.86937 17.0681 10.3912 17.0681H13.4062L16.9806 10.9838L15.8231 9.01188C15.5625 8.5625 15.6781 7.97 16.125 7.6875C16.2352 7.61625 16.3586 7.56801 16.4879 7.54569C16.6172 7.52337 16.7497 7.52742 16.8773 7.5576C17.005 7.58779 17.1253 7.64348 17.2309 7.72133C17.3365 7.79918 17.4253 7.89759 17.4919 8.01062L18.1106 9.0675H18.1175L18.7369 8.01062C18.8036 7.89817 18.8922 7.8003 18.9975 7.72284C19.1028 7.64538 19.2227 7.58991 19.3499 7.55976C19.4771 7.52961 19.609 7.52538 19.7379 7.54732C19.8668 7.56927 19.9899 7.61694 20.1 7.6875C20.5444 7.97 20.6588 8.5625 20.3962 9.01375L19.2388 10.9856L18.1138 12.9038L15.6706 17.07V17.0769H19.2712C19.7225 17.0769 20.2881 17.3194 20.5169 17.7094L20.5369 17.75C20.7388 18.0931 20.8531 18.3288 20.8531 18.6719C20.8498 18.7833 20.825 18.893 20.78 18.995L20.7781 18.9931ZM25.6375 19H23.9431V19.0069L25.1819 21.1138C25.3151 21.3356 25.3559 21.601 25.2955 21.8526C25.235 22.1043 25.0782 22.3222 24.8587 22.4594C24.7066 22.5521 24.5319 22.6012 24.3538 22.6012C24.1844 22.6012 24.0179 22.5573 23.8705 22.4738C23.723 22.3904 23.5997 22.2702 23.5125 22.125L21.6819 19.0088L20.5444 17.0713L19.0769 14.5625C18.8643 14.2043 18.7488 13.7969 18.7417 13.3804C18.7345 12.9639 18.8361 12.5528 19.0362 12.1875C19.3262 11.6756 19.5481 11.5413 19.5481 11.5413L22.8125 17.0625H25.6194C26.1444 17.0625 26.595 17.4663 26.6194 17.9844C26.6244 18.1161 26.6028 18.2475 26.5558 18.3707C26.5088 18.4938 26.4374 18.6062 26.3458 18.7011C26.2543 18.7959 26.1445 18.8713 26.0231 18.9227C25.9017 18.974 25.7712 19.0003 25.6394 19H25.6375Z" fill="white"/>
</g>
<defs>
<filter id="filter0_d_6_351" x="-2" y="0" width="40" height="40" filterUnits="userSpaceOnUse" color-interpolation-filters="sRGB">
<feFlood flood-opacity="0" result="BackgroundImageFix"/>
<feColorMatrix in="SourceAlpha" type="matrix" values="0 0 0 0 0 0 0 0 0 0 0 0 0 0 0 0 0 0 127 0" result="hardAlpha"/>
<feOffset dy="4"/>
<feGaussianBlur stdDeviation="2"/>
<feComposite in2="hardAlpha" operator="out"/>
<feColorMatrix type="matrix" values="0 0 0 0 0 0 0 0 0 0 0 0 0 0 0 0 0 0 0.25 0"/>
<feBlend mode="normal" in2="BackgroundImageFix" result="effect1_dropShadow_6_351"/>
<feBlend mode="normal" in="SourceGraphic" in2="effect1_dropShadow_6_351" result="shape"/>
</filter>
</defs>
</svg>
